<?xml version="1.0" standalone="no"?>
<!DOCTYPE svg PUBLIC "-//W3C//DTD SVG 20010904//EN"
 "http://www.w3.org/TR/2001/REC-SVG-20010904/DTD/svg10.dtd">
<svg version="1.0" xmlns="http://www.w3.org/2000/svg"
 width="735.000000pt" height="752.000000pt" viewBox="0 0 735.000000 752.000000"
 preserveAspectRatio="xMidYMid meet">

<g transform="translate(0.000000,752.000000) scale(0.100000,-0.100000)"
fill="#000000" stroke="none">
<path d="M3355 7480 c-27 -4 -97 -13 -155 -20 -92 -11 -203 -31 -385 -72 -225
-50 -589 -186 -815 -306 -156 -83 -407 -236 -430 -262 -3 -3 -21 -17 -40 -30
-19 -13 -78 -58 -130 -99 -578 -454 -1021 -1107 -1245 -1836 -46 -148 -105
-414 -125 -560 -6 -49 -15 -117 -20 -150 -11 -83 -10 -695 1 -775 5 -36 14
-101 20 -145 26 -195 76 -405 150 -635 357 -1097 1206 -1970 2288 -2351 182
-64 467 -138 616 -159 44 -6 105 -15 135 -20 209 -35 730 -35 930 0 30 5 100
17 155 25 123 20 343 74 484 119 514 164 998 447 1391 812 172 160 384 401
480 546 14 21 28 38 33 38 4 0 7 4 7 9 0 6 19 38 43 73 272 400 479 916 567
1413 12 66 25 138 30 160 6 23 8 253 7 530 -3 540 1 502 -78 845 -33 142 -123
430 -163 521 -12 30 -31 74 -42 99 -81 192 -292 570 -376 675 -5 6 -33 43 -62
82 -404 549 -989 995 -1626 1239 -224 86 -520 167 -725 198 -133 20 -194 29
-220 33 -59 8 -651 11 -700 3z m1796 -1222 c1 -238 1 -444 1 -458 1 -14 0 -53
-1 -87 l-1 -63 -252 0 c-139 0 -282 -5 -317 -11 -135 -21 -255 -109 -315 -230
-43 -86 -46 -109 -49 -347 l-2 -192 468 0 467 0 0 -27 c0 -33 0 -725 0 -895
l0 -118 -465 0 c-436 0 -465 -1 -466 -17 0 -10 0 -714 0 -1565 -1 -1241 -3
-1549 -13 -1558 -9 -7 -220 -9 -672 -8 l-659 3 -3 1572 -2 1573 -428 2 -427 3
0 515 0 515 428 3 427 2 0 363 c0 400 7 469 59 624 115 345 389 634 714 753
202 74 246 78 920 79 l587 1 1 -432z"/>
</g>
</svg>
