<?xml version="1.0" standalone="no"?>
<!DOCTYPE svg PUBLIC "-//W3C//DTD SVG 20010904//EN"
 "http://www.w3.org/TR/2001/REC-SVG-20010904/DTD/svg10.dtd">
<svg version="1.0" xmlns="http://www.w3.org/2000/svg"
 width="920.000000pt" height="981.000000pt" viewBox="0 0 920.000000 981.000000"
 preserveAspectRatio="xMidYMid meet">
<metadata>
Created by potrace 1.16, written by Peter Selinger 2001-2019
</metadata>
<g transform="translate(0.000000,981.000000) scale(0.100000,-0.100000)"
fill="#000000" stroke="none">
<path d="M4425 9803 c-873 -49 -1741 -460 -2386 -1130 -574 -597 -928 -1342
-1036 -2178 -24 -189 -24 -651 0 -840 163 -1286 888 -2619 2421 -4454 347
-416 815 -958 871 -1009 206 -189 449 -231 675 -117 116 58 191 128 379 350
985 1167 1694 2198 2177 3165 379 760 590 1406 671 2050 27 218 25 711 -5 950
-68 563 -228 1068 -477 1505 -625 1101 -1722 1713 -3065 1712 -91 0 -192 -2
-225 -4z m580 -624 c1009 -99 1796 -622 2238 -1486 232 -454 353 -942 373
-1503 46 -1254 -726 -2879 -2306 -4854 -245 -307 -542 -663 -574 -688 -20 -16
-22 -16 -40 0 -27 23 -624 721 -832 972 -664 800 -1090 1383 -1452 1986 -473
788 -734 1476 -813 2139 -19 160 -16 539 5 700 96 715 406 1346 911 1850 525
524 1195 839 1909 895 125 10 430 4 581 -11z"/>
<path d="M4315 7930 c-201 -37 -364 -91 -531 -179 -675 -354 -1060 -1089 -969
-1851 147 -1243 1449 -1976 2563 -1444 443 211 779 589 941 1057 209 607 89
1282 -316 1779 -81 99 -246 254 -353 331 -183 130 -453 247 -685 297 -149 33
-496 38 -650 10z m503 -596 c234 -42 445 -155 623 -333 240 -240 359 -529 359
-871 0 -352 -132 -664 -381 -905 -542 -522 -1402 -413 -1826 233 -319 485
-253 1131 157 1542 286 286 671 406 1068 334z"/>
</g>
</svg>
