<?xml version="1.0" standalone="no"?>
<!DOCTYPE svg PUBLIC "-//W3C//DTD SVG 20010904//EN"
 "http://www.w3.org/TR/2001/REC-SVG-20010904/DTD/svg10.dtd">
<svg version="1.0" xmlns="http://www.w3.org/2000/svg"
 width="255.000000pt" height="198.000000pt" viewBox="0 0 255.000000 198.000000"
 preserveAspectRatio="xMidYMid meet">

<g transform="translate(0.000000,198.000000) scale(0.100000,-0.100000)"
fill="#000000" stroke="none">
<path d="M2173 1829 c-56 -27 -78 -76 -93 -206 -14 -118 -6 -158 40 -197 16
-13 33 -26 39 -28 5 -1 -7 -81 -27 -180 l-37 -177 -36 -6 c-19 -3 -50 -15 -67
-25 -27 -17 -32 -26 -32 -58 0 -21 -4 -42 -9 -47 -8 -9 -12 -33 -26 -145 -2
-19 -9 -49 -16 -67 -12 -29 -11 -35 10 -64 l24 -32 -49 6 c-27 4 -82 10 -123
13 -73 7 -73 7 -45 22 40 20 64 42 81 76 19 38 9 72 -27 91 -42 22 -57 19 -26
-6 46 -37 24 -87 -34 -76 -16 4 -67 32 -114 63 -94 62 -142 72 -178 37 -19
-20 -20 -20 -58 -1 -53 27 -85 15 -183 -67 -49 -41 -90 -66 -112 -71 -59 -11
-87 33 -45 71 27 25 18 30 -18 11 -16 -8 -32 -25 -35 -37 -6 -24 7 -66 29 -91
14 -15 10 -17 -53 -23 -37 -4 -106 -13 -153 -21 -46 -7 -86 -11 -89 -8 -3 2 9
19 26 37 40 42 44 57 26 98 -9 18 -17 47 -18 62 -2 16 -8 34 -14 40 -6 6 -11
25 -11 42 0 17 -6 39 -14 50 -7 11 -16 36 -20 57 -5 30 -13 39 -46 52 -22 9
-53 16 -69 16 -29 0 -30 2 -85 168 -31 92 -56 172 -56 179 0 6 15 17 34 23 19
6 37 17 40 25 7 20 -82 366 -99 384 -11 11 -32 7 -131 -26 -65 -22 -122 -46
-127 -54 -11 -18 129 -365 152 -374 8 -3 29 0 48 6 19 6 36 9 37 7 8 -9 115
-342 112 -346 -3 -2 -18 23 -35 55 -42 85 -73 105 -114 73 -43 -34 -42 -63 2
-152 l40 -80 -29 -59 c-30 -59 -39 -112 -20 -124 6 -3 10 -17 10 -30 0 -13 6
-30 14 -37 7 -8 17 -24 21 -37 4 -12 18 -27 31 -33 13 -6 24 -17 24 -23 0 -26
42 -65 68 -65 27 0 28 -2 76 -190 27 -104 53 -190 58 -190 6 0 53 9 106 20
228 46 543 65 812 50 194 -11 424 -40 503 -64 l46 -14 10 32 c5 17 29 108 52
201 23 94 48 177 56 186 7 8 13 21 13 27 0 6 10 23 23 39 36 44 68 113 62 133
-3 10 -1 21 5 25 18 11 11 40 -29 105 -42 71 -42 89 1 174 32 62 5 136 -49
136 -31 0 -57 -28 -78 -86 -19 -50 -35 -77 -35 -58 0 13 58 303 65 325 3 10
21 19 43 23 52 8 97 55 116 119 44 157 48 178 41 213 -8 48 -59 98 -110 113
-56 15 -74 14 -122 -10z m-1790 -66 c6 -10 77 -281 77 -294 0 -5 -7 -9 -15 -9
-8 0 -18 16 -24 38 -34 127 -61 243 -61 256 0 16 15 22 23 9z m-29 -169 c32
-98 45 -149 38 -156 -14 -14 -23 5 -71 153 -45 138 -47 149 -28 149 7 0 32
-60 61 -146z m-73 -23 c32 -79 59 -146 59 -148 0 -2 -8 -3 -17 -1 -18 3 -136
275 -126 291 12 20 29 -8 84 -142z m1997 -413 c18 -18 14 -74 -8 -118 -11 -22
-20 -46 -20 -55 0 -12 -10 -7 -39 17 l-39 33 18 48 c29 76 60 103 88 75z
m-1871 -30 c22 -24 53 -81 53 -96 0 -6 -13 -24 -30 -42 l-30 -32 -10 27 c-6
15 -19 39 -30 53 -32 40 -22 112 15 112 6 0 21 -10 32 -22z m207 -119 c26 -7
40 -18 44 -32 3 -12 4 -24 1 -27 -2 -3 -30 -5 -61 -5 -63 0 -97 -19 -135 -75
-34 -49 -28 -60 7 -13 38 52 74 67 151 61 61 -4 79 -15 79 -49 0 -14 -8 -16
-46 -11 -28 3 -55 0 -71 -9 -26 -14 -97 -98 -89 -106 2 -2 27 19 56 48 50 50
53 51 97 45 25 -3 52 -11 59 -17 21 -17 17 -49 -6 -49 -10 0 -45 -26 -77 -57
-56 -55 -43 -54 34 3 39 29 69 31 83 3 21 -38 8 -62 -57 -105 -122 -83 -192
-92 -218 -31 -7 18 -23 38 -34 45 -12 7 -21 18 -21 26 0 7 -9 21 -20 31 -11
10 -20 29 -20 42 0 13 -5 32 -12 42 -9 15 -5 32 26 97 41 87 57 108 101 135
34 21 73 24 129 8z m1551 -3 c52 -22 169 -196 146 -219 -6 -6 -11 -25 -11 -43
0 -17 -7 -37 -15 -44 -8 -7 -15 -19 -15 -28 0 -8 -11 -25 -25 -38 -14 -13 -25
-32 -25 -43 0 -11 -10 -27 -23 -36 -21 -13 -30 -13 -83 1 -32 8 -86 30 -119
48 -50 27 -61 38 -63 62 -2 16 4 38 12 49 15 20 16 19 86 -18 39 -22 73 -37
75 -35 9 8 -111 88 -132 88 -50 0 -31 54 26 71 52 16 79 7 134 -42 59 -51 62
-38 5 18 -57 56 -88 67 -138 49 l-40 -14 0 29 c0 34 24 47 101 56 54 6 94 -11
133 -57 14 -18 26 -26 26 -19 0 6 -20 32 -45 57 l-45 45 -75 -6 c-66 -5 -75
-3 -75 11 0 29 15 43 61 57 57 18 82 18 124 1z m-689 -373 c-3 -3 -26 -2 -51
2 -45 6 -46 7 -30 25 16 18 18 18 51 -2 19 -11 33 -23 30 -25z m293 -28 c184
-19 211 -24 211 -41 0 -8 -1 -14 -2 -14 -2 0 -52 7 -113 15 -60 9 -216 19
-345 22 -204 5 -231 8 -205 19 41 18 273 17 454 -1z m-686 -14 c8 -8 -1 -11
-35 -11 -46 0 -260 -25 -305 -35 -16 -4 -23 -1 -23 10 0 18 15 22 150 40 116
15 195 14 213 -4z m-442 -56 c-1 -5 -15 -14 -32 -18 -17 -5 -29 -13 -27 -20 3
-7 22 -80 43 -162 l39 -150 85 17 c340 69 892 70 1239 1 49 -9 87 -12 92 -7
12 13 82 294 76 309 -3 8 6 15 21 18 21 4 24 2 19 -17 -4 -11 -25 -95 -48
-186 -22 -91 -42 -167 -44 -168 -1 -2 -35 3 -75 12 -219 50 -574 74 -852 57
-196 -12 -352 -31 -466 -57 -35 -8 -66 -13 -68 -10 -4 4 -93 345 -93 358 0 10
61 37 78 35 7 -1 13 -6 13 -12z m1459 0 c37 -13 39 -14 11 -10 -18 3 -40 5
-47 5 -8 0 -14 5 -14 10 0 12 -4 13 50 -5z"/>
<path d="M1179 1796 c-102 -29 -229 -127 -245 -191 -4 -18 -15 -25 -47 -30
-107 -18 -184 -83 -213 -181 -31 -108 16 -224 113 -276 55 -30 159 -50 213
-42 33 6 36 4 49 -31 7 -20 16 -66 19 -103 8 -78 4 -77 127 -41 110 31 332 34
415 5 30 -11 57 -17 59 -15 3 2 5 38 5 79 1 102 24 150 72 150 78 0 185 84
227 179 25 56 27 150 5 202 -22 50 -83 116 -132 142 -32 17 -59 22 -122 22
-80 1 -82 1 -124 39 -99 89 -284 129 -421 92z m181 -15 c174 -29 281 -120 297
-252 10 -89 -32 -161 -122 -207 -22 -12 -34 -21 -27 -22 21 0 105 46 129 72
12 12 27 37 33 53 14 37 15 132 1 169 -17 44 -15 46 57 46 59 0 75 -4 122 -32
149 -90 160 -273 25 -397 -76 -68 -118 -79 -215 -51 -150 42 -359 37 -518 -12
-92 -28 -70 -33 29 -6 110 30 338 32 438 5 36 -10 66 -19 68 -21 2 -2 -4 -22
-13 -46 -9 -23 -17 -68 -18 -101 -1 -48 -4 -58 -16 -53 -65 25 -153 36 -245
31 -85 -5 -209 -29 -266 -52 -13 -5 -18 7 -28 64 -6 39 -18 85 -27 103 l-15
33 -92 0 c-83 0 -97 3 -147 30 -33 18 -66 47 -84 73 -68 97 -36 242 69 307 43
27 57 30 124 30 118 -1 185 -51 200 -152 6 -44 8 -46 14 -20 9 34 -6 96 -33
130 -23 29 -96 67 -128 67 -27 0 -27 6 -4 45 59 96 185 164 322 174 8 0 40 -3
70 -8z"/>
</g>
</svg>
