<?xml version="1.0" standalone="no"?>
<!DOCTYPE svg PUBLIC "-//W3C//DTD SVG 20010904//EN"
 "http://www.w3.org/TR/2001/REC-SVG-20010904/DTD/svg10.dtd">
<svg version="1.0" xmlns="http://www.w3.org/2000/svg"
 width="920.000000pt" height="512.000000pt" viewBox="0 0 920.000000 512.000000"
 preserveAspectRatio="xMidYMid meet">

<g transform="translate(0.000000,512.000000) scale(0.100000,-0.100000)"
fill="#000000" stroke="none">
<path d="M4410 5114 c-19 -2 -78 -9 -130 -15 -301 -34 -651 -148 -923 -301
-706 -396 -1173 -1077 -1294 -1888 -21 -144 -24 -529 -4 -670 104 -749 489
-1374 1111 -1802 310 -214 670 -352 1080 -415 143 -22 527 -24 670 -4 576 80
1082 327 1479 722 410 408 663 918 742 1499 17 126 18 517 0 640 -80 582 -327
1084 -732 1489 -396 396 -897 647 -1449 726 -108 16 -471 28 -550 19z m483
-574 c544 -80 1019 -372 1342 -825 168 -235 283 -514 342 -827 25 -136 25
-502 0 -653 -110 -649 -533 -1208 -1127 -1488 -605 -285 -1332 -243 -1901 109
-719 445 -1079 1284 -907 2119 149 730 720 1330 1448 1521 247 65 545 81 803
44z"/>
<path d="M4407 4004 c-4 -4 -7 -347 -7 -763 l0 -756 477 -477 478 -478 137
137 138 138 -416 416 -416 417 -2 683 -1 684 -191 3 c-104 1 -193 -1 -197 -4z"/>
</g>
</svg>
