<?xml version="1.0" standalone="no"?>
<!DOCTYPE svg PUBLIC "-//W3C//DTD SVG 20010904//EN"
 "http://www.w3.org/TR/2001/REC-SVG-20010904/DTD/svg10.dtd">
<svg version="1.0" xmlns="http://www.w3.org/2000/svg"
 width="360.000000pt" height="360.000000pt" viewBox="0 0 360.000000 360.000000"
 preserveAspectRatio="xMidYMid meet">

<g transform="translate(0.000000,360.000000) scale(0.100000,-0.100000)"
fill="#000000" stroke="none">
<path d="M1074 3269 c-65 -39 -120 -72 -122 -74 -2 -1 27 -54 64 -116 226
-383 417 -704 419 -707 6 -7 256 152 265 168 29 54 17 80 -186 424 -107 182
-207 341 -220 354 -45 40 -86 31 -220 -49z"/>
<path d="M840 3113 c-50 -57 -111 -181 -137 -278 -29 -110 -26 -412 5 -560
115 -544 544 -1292 955 -1663 187 -168 393 -289 566 -331 131 -32 346 -23 346
15 0 6 -105 189 -234 406 l-234 395 -26 -10 c-67 -25 -141 21 -252 156 -84
102 -119 155 -294 452 -186 314 -219 390 -220 502 0 76 2 84 28 111 l29 30
-242 408 c-134 225 -244 410 -245 412 -1 2 -21 -19 -45 -45z"/>
<path d="M2297 1211 c-65 -38 -121 -71 -123 -74 -5 -4 445 -775 466 -800 9
-11 246 129 265 156 20 28 19 80 -1 120 -54 104 -370 626 -390 645 -44 39 -85
30 -217 -47z"/>
</g>
</svg>
