<?xml version="1.0" standalone="no"?>
<!DOCTYPE svg PUBLIC "-//W3C//DTD SVG 20010904//EN"
 "http://www.w3.org/TR/2001/REC-SVG-20010904/DTD/svg10.dtd">
<svg version="1.0" xmlns="http://www.w3.org/2000/svg"
 width="360.000000pt" height="360.000000pt" viewBox="0 0 360.000000 360.000000"
 preserveAspectRatio="xMidYMid meet">

<g transform="translate(0.000000,360.000000) scale(0.100000,-0.100000)"
fill="#000000" stroke="none">
<path d="M1605 3589 c-453 -47 -887 -280 -1183 -634 -304 -363 -453 -831 -414
-1297 20 -235 70 -423 168 -628 146 -305 342 -533 624 -725 98 -67 308 -171
425 -210 363 -123 782 -123 1150 -1 108 36 308 133 408 199 550 359 864 998
809 1649 -20 242 -70 425 -176 643 -331 685 -1050 1083 -1811 1004z m650
-1124 c49 -8 111 -39 148 -73 26 -25 30 -26 80 -15 30 6 81 24 115 41 34 16
62 27 62 25 0 -21 -58 -108 -94 -141 -25 -23 -46 -44 -46 -46 0 -4 92 20 159
40 21 6 22 5 13 -12 -14 -23 -75 -88 -123 -130 l-36 -31 -5 -104 c-9 -174 -72
-360 -175 -516 -52 -78 -164 -196 -239 -249 -300 -214 -716 -242 -1049 -70
l-80 41 115 6 c63 4 140 15 170 24 66 21 175 74 210 104 l25 20 -32 1 c-87 1
-206 77 -265 169 -41 66 -39 70 45 73 51 2 66 6 52 12 -78 33 -108 52 -148 92
-55 54 -94 130 -103 200 l-6 52 53 -19 c30 -10 65 -18 79 -19 25 0 25 0 -6 25
-47 37 -92 114 -111 189 -14 57 -14 77 -4 133 7 36 19 79 27 94 l14 28 47 -50
c160 -171 390 -287 620 -314 l63 -7 -6 44 c-8 58 11 151 44 212 47 86 149 159
249 176 48 8 62 7 138 -5z"/>
</g>
</svg>
